<?xml version="1.0" standalone="no"?>
<!DOCTYPE svg PUBLIC "-//W3C//DTD SVG 20010904//EN"
 "http://www.w3.org/TR/2001/REC-SVG-20010904/DTD/svg10.dtd">
<svg version="1.0" xmlns="http://www.w3.org/2000/svg"
 width="225.000000pt" height="225.000000pt" viewBox="0 0 225.000000 225.000000"
 preserveAspectRatio="xMidYMid meet">

<g transform="translate(0.000000,225.000000) scale(0.100000,-0.100000)"
fill="#000000" stroke="none">
<path d="M139 2111 l-29 -29 0 -672 c0 -441 4 -678 10 -691 23 -42 58 -49 255
-49 l185 0 0 -110 c0 -201 12 -210 280 -210 l180 0 0 -81 c0 -85 9 -113 44
-141 19 -16 62 -18 519 -18 l499 0 29 29 29 29 0 672 c0 441 -4 678 -10 691
-23 42 -58 49 -255 49 l-185 0 0 75 c0 44 -6 90 -15 111 -23 56 -56 64 -265
64 l-180 0 0 116 c0 119 -7 146 -44 176 -19 16 -62 18 -519 18 l-499 0 -29
-29z m1021 -246 l0 -35 -255 0 c-213 0 -261 -3 -286 -16 -33 -17 -59 -66 -59
-113 l0 -30 -117 -3 -118 -3 0 -30 0 -30 118 -3 117 -3 0 -69 0 -70 -107 0
c-60 0 -114 -4 -121 -9 -8 -4 -12 -19 -10 -32 3 -24 5 -24 121 -27 l117 -3 0
-69 0 -70 -107 0 c-60 0 -114 -4 -121 -9 -8 -4 -12 -19 -10 -32 3 -24 5 -24
121 -27 l117 -3 0 -69 0 -69 -111 -3 c-90 -2 -114 -6 -122 -19 -6 -9 -7 -24
-4 -33 5 -13 24 -16 122 -16 l115 0 0 -115 0 -115 -187 2 -188 3 -3 578 -2
577 490 0 490 0 0 -35z m460 -853 c0 -428 -3 -571 -12 -580 -17 -17 -949 -17
-966 0 -9 9 -12 152 -12 580 l0 568 495 0 495 0 0 -568z m448 -249 l-3 -578
-485 0 -485 0 -3 83 -3 82 259 0 259 0 37 25 c34 23 46 25 145 25 114 0 146
10 139 46 -3 17 -14 19 -121 22 l-117 3 0 74 0 74 117 3 c107 3 118 5 121 22
7 35 -25 46 -135 46 l-103 0 0 70 0 70 115 0 c98 0 117 3 122 16 3 9 2 24 -4
33 -8 13 -32 17 -122 19 l-111 3 0 69 0 70 115 0 c98 0 117 3 122 16 3 9 2 24
-4 33 -8 13 -32 17 -122 19 l-111 3 0 114 0 115 190 0 190 0 -2 -577z"/>
<path d="M856 1284 c-17 -17 -15 -26 17 -61 l20 -22 -27 -31 c-21 -25 -24 -35
-16 -51 15 -26 42 -24 70 6 l24 25 27 -26 c52 -49 93 -7 48 50 l-21 27 22 24
c24 26 24 52 -2 69 -14 8 -23 5 -45 -16 l-28 -27 -28 25 c-33 28 -40 29 -61 8z"/>
<path d="M1222 1288 c-18 -18 -15 -39 10 -65 l21 -23 -21 -23 c-50 -53 -5
-103 47 -53 l27 26 24 -25 c28 -30 55 -32 70 -6 8 16 5 26 -16 51 l-27 31 20
22 c32 35 34 44 17 61 -21 21 -27 20 -62 -9 l-29 -24 -23 24 c-26 28 -40 31
-58 13z"/>
<path d="M1050 951 c-98 -30 -202 -129 -184 -175 11 -29 46 -17 87 30 50 57
105 84 172 84 67 0 122 -27 172 -84 41 -47 76 -59 87 -30 16 42 -85 145 -167
169 -54 16 -125 18 -167 6z"/>
</g>
</svg>
